<?xml version="1.0" encoding="UTF-8"?>
<svg xmlns="http://www.w3.org/2000/svg" width="180" height="34" viewBox="0 0 180 34" fill="none">
  <path d="M45.1597 17.6185L34.1299 1.36417H43.5126L49.134 9.91063L54.7062 1.36417H64.0889L53.0264 17.6185V32.6278H45.1597V17.6185Z" fill="#45BAE0"></path>
  <path d="M76.0448 1.36417V18.3639C76.0448 19.2787 76.0776 20.2104 76.1432 21.1591C76.2087 22.1162 76.4136 22.9802 76.7413 23.751C77.0773 24.5218 77.6018 25.157 78.3229 25.6398C79.044 26.1226 80.0601 26.3683 81.3712 26.3683C82.6824 26.3683 83.6903 26.1226 84.395 25.6398C85.0997 25.157 85.6324 24.5302 85.9765 23.751C86.3207 22.9802 86.5338 22.1162 86.5993 21.1591C86.6649 20.2104 86.6976 19.2702 86.6976 18.3639V1.36417H94.5152V19.482C94.5152 24.3439 93.4417 27.9014 91.2866 30.1375C89.1314 32.3737 85.829 33.4917 81.363 33.4917C76.897 33.4917 73.5865 32.3737 71.4149 30.1375C69.2516 27.9014 68.1699 24.3439 68.1699 19.482V1.36417H76.0284H76.0448Z" fill="#45BAE0"></path>
  <path d="M110.559 13.146H99.0459V21.7179H110.559V13.146Z" fill="#45BAE0"></path>
  <path d="M146.509 17C146.509 14.6792 146.927 12.5192 147.754 10.5118C148.582 8.51283 149.737 6.7595 151.204 5.26874C152.671 3.77798 154.433 2.60908 156.481 1.76206C158.522 0.92351 160.775 0.5 163.242 0.5C165.708 0.5 167.921 0.92351 169.978 1.76206C172.035 2.60908 173.805 3.76951 175.288 5.26874C176.771 6.7595 177.926 8.51283 178.754 10.5118C179.582 12.5192 180 14.6792 180 17C180 19.3208 179.582 21.4807 178.754 23.4882C177.926 25.4956 176.771 27.2405 175.288 28.7313C173.805 30.222 172.035 31.3909 169.978 32.2379C167.921 33.0765 165.667 33.5 163.242 33.5C160.816 33.5 158.53 33.0765 156.481 32.2379C154.433 31.3994 152.679 30.2305 151.204 28.7313C149.729 27.2405 148.582 25.4872 147.754 23.4882C146.927 21.4807 146.509 19.3208 146.509 17ZM154.736 17C154.736 18.2451 154.965 19.3886 155.416 20.4389C155.867 21.4892 156.481 22.404 157.26 23.1748C158.03 23.9456 158.94 24.547 159.964 24.979C160.997 25.4109 162.087 25.6227 163.234 25.6227C164.381 25.6227 165.471 25.4109 166.503 24.979C167.536 24.547 168.437 23.9541 169.232 23.1748C170.019 22.404 170.642 21.4892 171.1 20.4389C171.551 19.3886 171.781 18.2367 171.781 17C171.781 15.7633 171.551 14.6114 171.1 13.5611C170.65 12.5108 170.027 11.596 169.232 10.8252C168.445 10.0544 167.536 9.45303 166.503 9.02105C165.471 8.58907 164.381 8.37731 163.234 8.37731C162.087 8.37731 160.997 8.58907 159.964 9.02105C158.932 9.45303 158.03 10.0459 157.26 10.8252C156.481 11.596 155.867 12.5108 155.416 13.5611C154.965 14.6114 154.736 15.7549 154.736 17Z" fill="#45BAE0"></path>
  <path d="M19.8388 17.6694L7.8585 1.36417H0V32.6278H7.8585V13.5105L19.8388 29.1973V17.6694Z" fill="#45BAE0"></path>
  <path d="M21.9033 1.36417V20.4815V31.8993V32.6786L30.1961 32.6278V1.36417H21.9033Z" fill="#45BAE0"></path>
  <path d="M140.755 11.0456C139.977 9.15678 138.92 7.49661 137.568 6.07361C136.216 4.65062 134.642 3.50713 132.84 2.65164C131.037 1.79615 129.103 1.36417 127.046 1.36417H125.596V8.26741C126.727 8.31823 127.759 8.52998 128.685 8.91114C129.75 9.35159 130.66 9.96145 131.389 10.7322C132.127 11.503 132.692 12.4348 133.094 13.5105C133.495 14.5862 133.692 15.7466 133.692 16.9917C133.692 18.2369 133.495 19.4312 133.11 20.4984C132.725 21.5657 132.159 22.4804 131.43 23.2597C130.693 24.0305 129.791 24.6404 128.726 25.0808C127.792 25.4704 126.743 25.6737 125.596 25.7245V32.6278H127.046C129.136 32.6278 131.078 32.1958 132.881 31.3403C134.683 30.4848 136.265 29.3329 137.609 27.9014C138.961 26.4615 140.018 24.8013 140.78 22.904C141.542 21.0151 141.919 19.0415 141.919 17.0002C141.919 14.9589 141.534 12.943 140.755 11.0541" fill="#45BAE0"></path>
  <path d="M115.263 1.36417V20.4815V31.8993V32.6278V32.6786L123.556 32.6278V1.36417H123.523H115.263Z" fill="#45BAE0"></path>
</svg>
