<svg xmlns="http://www.w3.org/2000/svg" viewBox="0 0 265.33 36.14"><defs><style>.cls-1{fill:#1a1311}</style></defs><title>Asset 1</title><g id="Layer_2" data-name="Layer 2"><path class="cls-1" d="M18.18 0L0 9.43v26.71h36.4V9.43zm15.74 33.66H2.47V22.43H6v9.47h2.43v-9.47H17v9.47h2.49v-9.47H28v9.46h2.48v-9.46h3.47zM8.43 20v-6.39H17V20zm25.49 0h-3.47v-8.92H28V20h-8.56v-8.87H6V20H2.47v-9l15.71-8.21 15.74 8.15zM66.83 6l.49 2.55h-10v10.11h7.79v2.55h-7.76v13.06l-2.55.33V6zm23.64 19.33c0 6-3.84 9.6-9.89 9.6s-9.89-3.58-9.89-9.6V6l2.56-.67v20.09a7.06 7.06 0 0 0 7.33 7c4.61 0 7.33-3.67 7.33-7.75V6l2.56-.67zM97 34.27V6l2.56-.67v26.39h10.29l-.85 2.55zm16.19 0V6l2.55-.67v26.39H126l-.78 2.55zm27.98.33V6l2.55-.67v13.33H160V6l2.55-.67v28.94l-2.55.33V21.21h-16.28v13.06zm56.11-14.46a15 15 0 0 1-29.91 0 15 15 0 0 1 29.91 0zm-27.11 0a12.16 12.16 0 1 0 12.15-12.23 12.33 12.33 0 0 0-12.15 12.23zm51.4 5.19c0 6-3.83 9.6-9.89 9.6s-9.88-3.58-9.88-9.6V6l2.55-.67v20.09a7.07 7.07 0 0 0 7.33 7c4.61 0 7.33-3.67 7.33-7.75V6l2.56-.67zm6.49 3.09a7.62 7.62 0 0 0 7 4c3.46 0 6-2 6-5.6 0-7.92-14.5-3.59-14.5-13.43 0-5.15 4-8 8.86-8a10.26 10.26 0 0 1 7.45 3.38l-1.56 1.9c-1.78-1.57-3.42-2.72-5.89-2.72-3.3 0-6.06 1.69-6.06 5.27 0 7 14.5 3.34 14.5 13.35 0 5.15-3.87 8.4-8.85 8.4a9.73 9.73 0 0 1-8.92-4.97zm20.79 5.85V6h15.29l.5 2.55h-13.23v10.11h11.33v2.55h-11.33v10.51h13.92l-.45 2.55z" id="レイヤー_1" data-name="レイヤー 1"/></g></svg>