<svg width="117" height="25" viewBox="0 0 117 25" fill="none" xmlns="http://www.w3.org/2000/svg">
<path d="M15.7904 6.11401H0V10.7184H15.7904V6.11401Z" fill="#111111"/>
<path d="M4.76257 0L2.97961 4.15353H7.08827L8.87079 0H4.76257Z" fill="#111111"/>
<path d="M15.7904 13.2549H0V17.8594H15.7904V13.2549Z" fill="#111111"/>
<path d="M15.7904 20.3955H0V24.9999H15.7904V20.3955Z" fill="#111111"/>
<path d="M60.8388 6.11597V22.5328H54.2615V6.11597H51.8063V24.9834H63.2937V6.11597H60.8388Z" fill="#111111"/>
<path d="M80.312 8.57485H86.8906V14.2519H80.312V8.57485ZM77.8571 6.11597V24.9834H80.312V16.7064H86.8906V24.9834H89.3459V6.11597H77.8571Z" fill="#111111"/>
<path d="M107.947 8.57485H114.525V14.2519H107.947V8.57485ZM105.492 6.11597V24.9834H107.947V16.7064H114.525V24.9834H116.981V6.11597H105.492Z" fill="#111111"/>
<path d="M94.1295 8.57485H100.708V14.2519H94.1295V8.57485ZM91.6744 6.11597V24.9834H94.1295V16.7064H99.1448L101.383 24.9834H103.978L101.741 16.7076H103.163V6.11597H91.6744Z" fill="#111111"/>
<path d="M29.7396 6.11597L26.445 15.7518L23.1707 6.11597H20.7062V24.9834H23.1611V13.3124L25.2134 19.3526H27.6687L29.7396 13.2952V24.9834H32.1945V6.11597H29.7396Z" fill="#111111"/>
<path d="M36.8275 6.11597H34.3722V24.9834H36.8275V6.11597Z" fill="#111111"/>
<path d="M74.048 6.11575L67.6448 15.2258V6.11575H65.1903V24.9832H67.6448V18.9591L69.9733 15.6358L74.2087 24.9827H76.8035L71.549 13.385L76.6428 6.11475L74.048 6.11575Z" fill="#111111"/>
<path d="M38.5765 6.11548V8.57078H46.3088L38.5724 24.9832L50.0615 24.9813V22.5266H42.3254L50.0555 6.12838L50.0652 6.11548H38.5765Z" fill="#111111"/>
</svg>
